<?xml version="1.0" encoding="utf-8"?>
<svg width="202px" height="162px" viewBox="0 0 202 162" version="1.1" xmlns:xlink="http://www.w3.org/1999/xlink" xmlns="http://www.w3.org/2000/svg">
  <defs>
    <filter filterUnits="userSpaceOnUse" color-interpolation-filters="sRGB" id="filter_1">
      <feFlood flood-opacity="0" result="BackgroundImageFix" />
      <feColorMatrix in="SourceAlpha" type="matrix" values="0 0 0 0 0 0 0 0 0 0 0 0 0 0 0 0 0 0 128 0" />
      <feOffset dx="0" dy="4" />
      <feGaussianBlur stdDeviation="2" />
      <feColorMatrix type="matrix" values="0 0 0 0 0.39215687 0 0 0 0 0.39215687 0 0 0 0 0.39215687 0 0 0 0.49803922 0" />
      <feBlend mode="normal" in2="BackgroundImageFix" result="effect0_dropShadow" />
      <feBlend mode="normal" in="SourceGraphic" in2="effect0_dropShadow" result="shape" />
    </filter>
  </defs>
  <path d="M139.121 35.3333L139.121 7C139.121 4.23858 136.882 2 134.121 2L75.7452 2C72.9838 2 70.7452 4.23858 70.7452 7L70.7452 35.3333L11 35.3333C8.23858 35.3333 6 37.5719 6 40.3333L6 147C6 149.761 8.23858 152 11 152L191 152C193.761 152 196 149.761 196 147L196 40.3333C196 37.5719 193.761 35.3333 191 35.3333L139.121 35.3333L139.121 35.3333ZM75.7452 3C73.5361 3 71.7452 4.79086 71.7452 7L71.7452 34.8333L138.121 34.8333L138.121 7C138.121 4.79086 136.33 3 134.121 3L75.7452 3L75.7452 3ZM138.121 35.8333L71.7452 35.8333L71.7452 36.3333L11 36.3333C8.79086 36.3333 7 38.1242 7 40.3333L7 147C7 149.209 8.79086 151 11 151L191 151C193.209 151 195 149.209 195 147L195 40.3333C195 38.1242 193.209 36.3333 191 36.3333L138.121 36.3333L138.121 35.8333L138.121 35.8333Z" id="objUnitIcon" fill="#000000" fill-rule="evenodd" stroke="none" filter="url(#filter_1)" />
</svg>